<?xml version="1.0" encoding="UTF-8" standalone="no"?><!DOCTYPE svg PUBLIC "-//W3C//DTD SVG 1.1//EN" "http://www.w3.org/Graphics/SVG/1.1/DTD/svg11.dtd"><svg width="100%" height="100%" viewBox="0 0 1111 275" version="1.1" xmlns="http://www.w3.org/2000/svg" xmlns:xlink="http://www.w3.org/1999/xlink" xml:space="preserve" xmlns:serif="http://www.serif.com/" style="fill-rule:evenodd;clip-rule:evenodd;stroke-linejoin:round;stroke-miterlimit:2;"><g id="Artboard1"><rect x="0" y="0" width="1110.86" height="274.221" style="fill:none;"/><g id="Layer-1" serif:id="Layer 1"><g><path d="M217.596,180.455c-6.666,-4.186 -8.706,-12.989 -4.529,-19.68c4.2,-6.681 12.991,-8.709 19.672,-4.548c6.696,4.2 8.721,12.989 4.56,19.685c-4.19,6.672 -13.021,8.725 -19.703,4.543" style="fill:#54b947;fill-rule:nonzero;"/></g><g><path d="M230.678,75.121c0,0 -5.758,103.496 -104.229,172.388c5.013,-4.134 71.279,-73.305 58.775,-85.259c-7.929,-10.279 -33.758,-24.929 -57.171,-32.242c0,0 39.875,-3.387 68.296,8.242c4.575,-4.337 28.45,-37.258 34.329,-63.129" style="fill:#54b947;fill-rule:nonzero;"/></g><g><path d="M38.514,187.159c6.811,-3.985 15.552,-1.672 19.529,5.125c3.973,6.814 1.67,15.558 -5.126,19.521c-6.814,3.987 -15.551,1.69 -19.529,-5.116c-3.988,-6.8 -1.669,-15.549 5.126,-19.53" style="fill:#71cbd2;fill-rule:nonzero;"/></g><g><path d="M126.451,247.509c0,0 -97.288,-51.667 -99.388,-175.801c1.329,6.346 26.217,100.775 42.621,95.238c12.808,-2.242 37.754,-18.304 55.129,-35.633c0,0 -15.55,36.875 -39.05,56.641c1.713,6.067 20.479,42.325 40.688,59.555" style="fill:#71cbd2;fill-rule:nonzero;"/></g><g><path d="M129.035,30.128c-0.66,7.86 -7.584,13.685 -15.441,13c-7.836,-0.646 -13.674,-7.57 -12.998,-15.421c0.662,-7.872 7.567,-13.674 15.421,-13.005c7.853,0.651 13.683,7.571 13.018,15.426" style="fill:#0055a5;fill-rule:nonzero;"/></g><g><path d="M27.063,71.707c0,0 97.363,-52.792 203.617,3.413c-5.98,-2.596 -98.138,-28.484 -103.075,-11.875c-5.521,11.745 -6.784,41.416 -2.604,65.57c0,0 -21.196,-33.925 -23.817,-64.533c-5.942,-2.087 -48.417,0.85 -74.121,7.425" style="fill:#0055a5;fill-rule:nonzero;"/></g><g><path d="M304.248,137.716c-1.733,7.975 1.946,14.663 11.662,14.663c4.313,0 12.292,-1.721 18.113,-10.35c4.746,-6.896 6.679,-15.738 7.329,-20.267c-17.25,0.208 -33.867,0.417 -37.104,15.954m27.625,35.15c0,-3.85 0.642,-8.608 1.929,-15.52c-6.467,7.345 -17.033,17.683 -39.262,17.683c-26.525,0 -35.146,-14.446 -31.05,-33.654c6.254,-29.55 36.025,-40.325 82.183,-38.388c2.587,-11.642 3.462,-22.429 -8.842,-22.429c-7.562,0 -15.537,4.112 -17.912,16.404l-38.813,0c1.279,-4.967 3.229,-14.246 13.154,-22.65c10.363,-8.629 28.255,-13.592 47.88,-13.592c9.704,0 29.987,1.3 39.05,12.521c5.6,6.663 6.029,16.817 3.437,28.459l-10.775,50.471c-1.508,7.77 -1.725,9.933 -2.154,20.695l-38.825,0Z" style="fill:#0055a5;fill-rule:nonzero;"/></g><g><path d="M403.93,89.177c0.65,-2.575 3.875,-21.342 4.541,-24.575l40.109,0l-3.459,17.9c10.784,-14.025 24.609,-20.483 40.979,-20.483c6.271,0 26.759,1.066 29.78,20.054c13.808,-16.833 31.275,-20.283 42.487,-20.283c20.279,0 27.829,10.57 30.638,16.837c3.883,9.271 1.07,22.421 -1.725,34.933l-12.517,59.305l-40.554,0l12.946,-61.238c2.387,-11.008 5.175,-23.958 -11.021,-23.958c-5.375,0 -11.838,1.954 -17.013,9.075c-1.946,2.583 -3.45,6.046 -5.383,15.312l-12.963,60.809l-40.537,0l13.15,-61.675c1.929,-9.721 4.962,-23.521 -11.217,-23.521c-13.8,0 -19.625,11.437 -22.216,23.521l-13.159,61.675l-40.554,0l17.688,-83.688Z" style="fill:#0055a5;fill-rule:nonzero;"/></g><g><path d="M654.771,150.868c17.042,0 24.363,-18.55 27.821,-34.713c2.154,-10.342 4.525,-31.054 -12.733,-31.054c-20.721,0 -26.517,26.954 -27.825,33.192c-1.938,8.654 -5.821,32.575 12.737,32.575m-2.162,-86.267l-2.813,15.304c4.975,-5.371 16.621,-18.117 39.259,-18.117c18.133,0 44.441,10.346 34.954,54.805c-8.859,42.054 -36.017,58.437 -60.621,58.437c-19.171,0 -25.888,-9.687 -29.321,-15.087l-16.337,88.108l-35.659,0l27.834,-165.767c2.145,-11.858 2.145,-13.158 3.016,-17.683l39.688,0Z" style="fill:#0055a5;fill-rule:nonzero;"/></g><g><path d="M768.063,137.716c-1.725,7.975 1.937,14.663 11.633,14.663c4.325,0 12.288,-1.721 18.134,-10.35c4.741,-6.896 6.687,-15.738 7.337,-20.267c-17.254,0.208 -33.871,0.417 -37.104,15.954m27.604,35.15c0,-3.85 0.658,-8.608 1.938,-15.52c-6.463,7.345 -17.05,17.683 -39.25,17.683c-26.525,0 -35.171,-14.446 -31.042,-33.654c6.229,-29.55 36.008,-40.325 82.158,-38.388c2.6,-11.642 3.446,-22.429 -8.846,-22.429c-7.562,0 -15.52,4.112 -17.891,16.404l-38.846,0c1.317,-4.967 3.246,-14.246 13.171,-22.65c10.35,-8.629 28.258,-13.592 47.883,-13.592c9.713,0 29.996,1.3 39.05,12.521c5.588,6.663 6.033,16.817 3.429,28.459l-10.771,50.471c-1.491,7.77 -1.712,9.933 -2.145,20.695l-38.838,0Z" style="fill:#0055a5;fill-rule:nonzero;"/></g><g><path d="M950.88,65.027l-5.4,25.88l-26.084,0l-7.991,37.546c-2.605,13.362 -3.88,19.412 11.645,19.412c3.234,0 5.184,0 10.125,-0.662l-5.387,25.45c-5.613,0.883 -12.938,1.941 -26.738,1.941c-32.358,0 -36.458,-10.791 -31.916,-31.708l11,-51.979l-20.513,0l5.413,-25.88l21.125,0l3.683,-16.816l42.271,-15.534l-6.892,32.35l25.659,0Z" style="fill:#0055a5;fill-rule:nonzero;"/></g><g><path d="M977.834,17.139l40.983,0l-12.512,59.309c5.191,-4.313 17.266,-14.213 36.887,-14.213c10.575,0 20.7,2.792 27.829,11.005c8.838,9.695 6.254,21.566 3.021,36.641l-13.362,62.988l-40.325,0l12.279,-58.229c1.921,-9.059 5.812,-26.742 -11.025,-26.742c-12.925,0 -18.313,10.796 -20.242,15.092c-2.192,4.958 -3.687,11.875 -5.6,20.92l-10.392,48.959l-40.533,0l32.992,-155.73Z" style="fill:#0055a5;fill-rule:nonzero;"/></g><g><g><g><g><path d="M658.773,233.561l7.59,-39.325l4.84,0l-6.71,34.815l19.745,0l-0.88,4.51l-24.585,0Z" style="fill-rule:nonzero;"/><path d="M712.838,220.416l-21.175,0c-0.037,0.366 -0.055,0.898 -0.055,1.595c0,2.603 0.678,4.693 2.035,6.27c1.357,1.576 3.3,2.365 5.83,2.365c1.87,0 3.52,-0.514 4.95,-1.54c1.43,-1.027 2.457,-2.475 3.08,-4.345l4.29,0c-1.1,3.153 -2.75,5.536 -4.95,7.15c-2.2,1.613 -4.803,2.42 -7.81,2.42c-3.41,0 -6.242,-1.119 -8.497,-3.355c-2.255,-2.237 -3.383,-5.244 -3.383,-9.02c0,-4.84 1.43,-8.974 4.29,-12.403c2.86,-3.428 6.362,-5.142 10.505,-5.142c2.897,0 5.28,0.696 7.15,2.09c3.52,2.64 4.767,7.278 3.74,13.915Zm-11.055,-12.54c-2.42,0 -4.473,0.834 -6.16,2.502c-1.687,1.669 -2.86,3.896 -3.52,6.683l16.555,0c0.293,-2.75 -0.147,-4.969 -1.32,-6.655c-1.173,-1.687 -3.025,-2.53 -5.555,-2.53Z" style="fill-rule:nonzero;"/><path d="M736.268,233.836c-2.567,0 -3.887,-1.302 -3.96,-3.905l-0.055,0c-2.163,2.786 -5.152,4.18 -8.965,4.18c-2.713,0 -4.867,-0.779 -6.462,-2.338c-1.595,-1.558 -2.393,-3.456 -2.393,-5.692c0,-1.724 0.303,-3.19 0.908,-4.4c0.605,-1.21 1.475,-2.127 2.612,-2.75c1.137,-0.624 2.301,-1.073 3.493,-1.348c1.191,-0.275 2.594,-0.467 4.207,-0.577c4.033,-0.22 6.655,-0.596 7.865,-1.128c1.21,-0.531 1.815,-1.696 1.815,-3.492c0,-2.86 -1.943,-4.327 -5.83,-4.4c-4.657,-0.074 -7.333,1.833 -8.03,5.72l-4.455,0c0.513,-2.897 1.87,-5.152 4.07,-6.765c2.2,-1.614 5.115,-2.42 8.745,-2.42c3.117,0 5.601,0.788 7.453,2.365c1.851,1.576 2.465,4.015 1.842,7.315l-2.585,13.145c-0.22,1.173 -0.165,2.007 0.165,2.502c0.33,0.495 1.1,0.633 2.31,0.413l0.165,0l-0.66,3.19c-0.843,0.256 -1.595,0.385 -2.255,0.385Zm-17.38,-8.085c0,1.503 0.468,2.704 1.403,3.602c0.935,0.899 2.245,1.348 3.932,1.348c2.567,0 4.638,-0.761 6.215,-2.283c1.577,-1.521 2.585,-3.419 3.025,-5.692l0.77,-3.905c-0.55,0.33 -1.265,0.586 -2.145,0.77c-0.88,0.183 -1.705,0.321 -2.475,0.412c-0.77,0.092 -2.145,0.211 -4.125,0.358c-0.66,0.036 -1.182,0.082 -1.567,0.137c-0.385,0.055 -0.935,0.193 -1.65,0.413c-0.715,0.22 -1.284,0.504 -1.705,0.852c-0.422,0.349 -0.807,0.871 -1.155,1.568c-0.349,0.696 -0.523,1.503 -0.523,2.42Z" style="fill-rule:nonzero;"/><path d="M761.678,230.481c-2.31,2.603 -5.097,3.905 -8.36,3.905c-3.263,0 -5.885,-1.045 -7.865,-3.135c-1.98,-2.09 -2.952,-5.005 -2.915,-8.745c0.037,-2.897 0.596,-5.684 1.678,-8.36c1.081,-2.677 2.795,-4.959 5.142,-6.848c2.347,-1.888 5.06,-2.832 8.14,-2.832c3.703,0 6.453,1.668 8.25,5.005l0.11,0l2.915,-15.235l4.4,0l-7.59,39.325l-4.4,0l0.605,-3.08l-0.11,0Zm-14.685,-8.195c0,2.456 0.559,4.473 1.678,6.05c1.118,1.576 2.869,2.365 5.252,2.365c3.373,0 5.968,-1.467 7.783,-4.4c1.815,-2.934 2.722,-6.362 2.722,-10.285c0,-2.274 -0.623,-4.144 -1.87,-5.61c-1.247,-1.467 -2.988,-2.2 -5.225,-2.2c-2.2,0 -4.116,0.77 -5.747,2.31c-1.632,1.54 -2.805,3.355 -3.52,5.445c-0.715,2.09 -1.073,4.198 -1.073,6.325Z" style="fill-rule:nonzero;"/><path d="M771.523,233.561l5.5,-28.435l4.4,0l-5.5,28.435l-4.4,0Zm6.545,-33.825l1.045,-5.5l4.4,0l-1.045,5.5l-4.4,0Z" style="fill-rule:nonzero;"/><path d="M791.763,205.126l-0.825,4.4l0.11,0c1.21,-1.577 2.732,-2.814 4.565,-3.713c1.833,-0.898 3.795,-1.347 5.885,-1.347c2.787,0 4.767,0.797 5.94,2.392c1.173,1.595 1.503,3.804 0.99,6.628l-3.905,20.075l-4.345,0l3.905,-20.075c0.33,-1.797 0.211,-3.135 -0.357,-4.015c-0.569,-0.88 -1.696,-1.32 -3.383,-1.32c-2.567,0 -4.913,0.935 -7.04,2.805c-2.127,1.87 -3.447,4.088 -3.96,6.655l-3.08,15.95l-4.4,0l5.5,-28.435l4.4,0Z" style="fill-rule:nonzero;"/><path d="M821.133,243.021c-3.043,0 -5.582,-0.633 -7.617,-1.898c-2.035,-1.265 -3.09,-3.254 -3.163,-5.967l4.345,0c0.22,2.933 2.347,4.4 6.38,4.4c4.583,0 7.297,-2.127 8.14,-6.38l0.88,-4.455l-0.055,0c-2.31,2.566 -5.042,3.85 -8.195,3.85c-3.117,0 -5.647,-1.027 -7.59,-3.08c-1.943,-2.054 -2.915,-4.804 -2.915,-8.25c0,-4.547 1.283,-8.479 3.85,-11.798c2.567,-3.318 6.05,-4.977 10.45,-4.977c3.703,0 6.417,1.595 8.14,4.785l0.055,0l0.825,-4.125l4.345,0l-5.5,28.435c-0.55,2.896 -1.925,5.197 -4.125,6.902c-2.2,1.705 -4.95,2.558 -8.25,2.558Zm-5.39,-22.055c0,2.42 0.568,4.345 1.705,5.775c1.137,1.43 2.878,2.145 5.225,2.145c3.19,0.036 5.656,-1.256 7.398,-3.878c1.741,-2.621 2.612,-5.637 2.612,-9.047c0,-2.457 -0.605,-4.364 -1.815,-5.72c-1.21,-1.357 -3.025,-2.035 -5.445,-2.035c-3.117,0 -5.509,1.265 -7.177,3.795c-1.669,2.53 -2.503,5.518 -2.503,8.965Z" style="fill-rule:nonzero;"/><path d="M856.278,233.561l-3.135,-39.325l4.95,0l1.595,25.575l0.33,6.655l0.11,0c1.1,-2.787 2.035,-5.042 2.805,-6.765l11.275,-25.465l5.28,0l2.42,25.465l0.385,6.765l0.11,0c1.1,-2.824 1.98,-5.042 2.64,-6.655l10.835,-25.575l4.95,0l-17.38,39.325l-4.675,0l-2.42,-27.72l-0.33,-6.105l-0.11,0c-0.917,2.383 -1.742,4.418 -2.475,6.105l-12.32,27.72l-4.84,0Z" style="fill-rule:nonzero;"/><path d="M896.923,233.561l5.5,-28.435l4.4,0l-5.5,28.435l-4.4,0Zm6.545,-33.825l1.045,-5.5l4.4,0l-1.045,5.5l-4.4,0Z" style="fill-rule:nonzero;"/><path d="M910.288,208.701l0.715,-3.575l4.015,0l1.76,-8.965l4.4,0l-1.76,8.965l5.445,0l-0.715,3.575l-5.445,0l-3.465,18.04c-0.44,2.126 0.385,3.19 2.475,3.19c0.953,0 1.797,-0.165 2.53,-0.495l0.165,0l-0.77,3.85c-0.807,0.293 -1.833,0.44 -3.08,0.44c-2.237,0 -3.868,-0.614 -4.895,-1.843c-1.027,-1.228 -1.302,-2.997 -0.825,-5.307l3.465,-17.875l-4.015,0Z" style="fill-rule:nonzero;"/><path d="M935.588,194.236l-2.97,15.345l0.11,0c1.21,-1.577 2.741,-2.824 4.593,-3.74c1.851,-0.917 3.822,-1.375 5.912,-1.375c2.787,0 4.767,0.797 5.94,2.392c1.173,1.595 1.503,3.804 0.99,6.628l-3.905,20.075l-4.345,0l3.905,-20.075c0.33,-1.797 0.211,-3.135 -0.357,-4.015c-0.569,-0.88 -1.696,-1.32 -3.383,-1.32c-2.567,0 -4.913,0.935 -7.04,2.805c-2.127,1.87 -3.447,4.088 -3.96,6.655l-3.08,15.95l-4.4,0l7.59,-39.325l4.4,0Z" style="fill-rule:nonzero;"/><path d="M979.643,234.331c-5.243,0 -9.286,-1.577 -12.127,-4.73c-2.842,-3.154 -4.263,-7.352 -4.263,-12.595c0,-3.997 0.798,-7.774 2.393,-11.33c1.595,-3.557 4.005,-6.499 7.232,-8.828c3.227,-2.328 6.93,-3.492 11.11,-3.492c4.107,0 7.407,1.1 9.9,3.3c2.493,2.2 3.905,5.28 4.235,9.24l-4.895,0c-0.367,-2.677 -1.375,-4.73 -3.025,-6.16c-1.65,-1.43 -3.887,-2.145 -6.71,-2.145c-3.153,0 -5.903,0.926 -8.25,2.777c-2.347,1.852 -4.088,4.217 -5.225,7.095c-1.137,2.879 -1.705,6.004 -1.705,9.378c0,3.886 0.953,7.058 2.86,9.515c1.907,2.456 4.785,3.685 8.635,3.685c3.3,0 5.986,-1.036 8.058,-3.108c2.071,-2.071 3.455,-4.666 4.152,-7.782l4.84,0c-0.733,3.96 -2.457,7.406 -5.17,10.34c-3.007,3.226 -7.022,4.84 -12.045,4.84Z" style="fill-rule:nonzero;"/><path d="M1020.45,233.836c-2.567,0 -3.887,-1.302 -3.96,-3.905l-0.055,0c-2.163,2.786 -5.152,4.18 -8.965,4.18c-2.713,0 -4.867,-0.779 -6.462,-2.338c-1.595,-1.558 -2.393,-3.456 -2.393,-5.692c0,-1.724 0.303,-3.19 0.908,-4.4c0.605,-1.21 1.475,-2.127 2.612,-2.75c1.137,-0.624 2.301,-1.073 3.493,-1.348c1.191,-0.275 2.594,-0.467 4.207,-0.577c4.033,-0.22 6.655,-0.596 7.865,-1.128c1.21,-0.531 1.815,-1.696 1.815,-3.492c0,-2.86 -1.943,-4.327 -5.83,-4.4c-4.657,-0.074 -7.333,1.833 -8.03,5.72l-4.455,0c0.513,-2.897 1.87,-5.152 4.07,-6.765c2.2,-1.614 5.115,-2.42 8.745,-2.42c3.117,0 5.601,0.788 7.453,2.365c1.851,1.576 2.465,4.015 1.842,7.315l-2.585,13.145c-0.22,1.173 -0.165,2.007 0.165,2.502c0.33,0.495 1.1,0.633 2.31,0.413l0.165,0l-0.66,3.19c-0.843,0.256 -1.595,0.385 -2.255,0.385Zm-17.38,-8.085c0,1.503 0.468,2.704 1.403,3.602c0.935,0.899 2.245,1.348 3.932,1.348c2.567,0 4.638,-0.761 6.215,-2.283c1.577,-1.521 2.585,-3.419 3.025,-5.692l0.77,-3.905c-0.55,0.33 -1.265,0.586 -2.145,0.77c-0.88,0.183 -1.705,0.321 -2.475,0.412c-0.77,0.092 -2.145,0.211 -4.125,0.358c-0.66,0.036 -1.182,0.082 -1.567,0.137c-0.385,0.055 -0.935,0.193 -1.65,0.413c-0.715,0.22 -1.284,0.504 -1.705,0.852c-0.422,0.349 -0.807,0.871 -1.155,1.568c-0.349,0.696 -0.523,1.503 -0.523,2.42Z" style="fill-rule:nonzero;"/><path d="M1035.85,205.126l-0.88,4.51l0.11,0c2.347,-3.227 5.06,-4.84 8.14,-4.84c1.027,0 1.797,0.11 2.31,0.33l-0.825,4.235l-0.165,0c-0.513,-0.184 -1.192,-0.275 -2.035,-0.275c-2.2,0 -4.162,0.843 -5.885,2.53c-1.723,1.686 -2.86,3.996 -3.41,6.93l-2.86,15.015l-4.4,0l5.5,-28.435l4.4,0Z" style="fill-rule:nonzero;"/><path d="M1067.42,220.416l-21.175,0c-0.037,0.366 -0.055,0.898 -0.055,1.595c0,2.603 0.678,4.693 2.035,6.27c1.357,1.576 3.3,2.365 5.83,2.365c1.87,0 3.52,-0.514 4.95,-1.54c1.43,-1.027 2.457,-2.475 3.08,-4.345l4.29,0c-1.1,3.153 -2.75,5.536 -4.95,7.15c-2.2,1.613 -4.803,2.42 -7.81,2.42c-3.41,0 -6.242,-1.119 -8.497,-3.355c-2.255,-2.237 -3.383,-5.244 -3.383,-9.02c0,-4.84 1.43,-8.974 4.29,-12.403c2.86,-3.428 6.362,-5.142 10.505,-5.142c2.897,0 5.28,0.696 7.15,2.09c3.52,2.64 4.767,7.278 3.74,13.915Zm-11.055,-12.54c-2.42,0 -4.473,0.834 -6.16,2.502c-1.687,1.669 -2.86,3.896 -3.52,6.683l16.555,0c0.293,-2.75 -0.147,-4.969 -1.32,-6.655c-1.173,-1.687 -3.025,-2.53 -5.555,-2.53Z" style="fill-rule:nonzero;"/></g></g></g></g></g></g></svg>